<?xml version="1.0" encoding="UTF-8"?>
<svg width="97px" height="119px" viewBox="0 0 97 119" version="1.1" xmlns="http://www.w3.org/2000/svg" xmlns:xlink="http://www.w3.org/1999/xlink">
    <!-- Generator: Sketch 63.1 (92452) - https://sketch.com -->
    <title>Asset Lockdown</title>
    <desc>Created with Sketch.</desc>
    <defs>
        <linearGradient x1="18.7331399%" y1="52.9820791%" x2="83.5316829%" y2="0%" id="linearGradient-1">
            <stop stop-color="#7437A8" offset="0%"></stop>
            <stop stop-color="#162E7A" offset="100%"></stop>
        </linearGradient>
    </defs>
    <g id="Page-1" stroke="none" stroke-width="1" fill="none" fill-rule="evenodd">
        <g id="Asset-Lockdown" fill-rule="nonzero">
            <g id="Lock" fill="url(#linearGradient-1)">
                <g id="g2991" transform="translate(48.500000, 59.500000) scale(-1, 1) rotate(-180.000000) translate(-48.500000, -59.500000) translate(0.000000, -0.000000)">
                    <path d="M59.2307692,43.0379747 C59.2307692,46.0080432 58.1790865,48.5438093 56.0757212,50.6452729 C53.9723558,52.7467366 51.4342949,53.7974684 48.4615385,53.7974684 C45.4887821,53.7974684 42.9507212,52.7467366 40.8473558,50.6452729 C38.7439904,48.5438093 37.6923077,46.0080432 37.6923077,43.0379747 C37.6923077,40.9645306 38.2251603,39.0872231 39.2908654,37.4060522 C40.3565705,35.7248813 41.786859,34.4079641 43.5817308,33.4553006 L37.7764423,14.205894 C37.4959936,13.3653085 37.6362179,12.5807621 38.1971154,11.8522547 C38.7580128,11.1237474 39.4871795,10.7594937 40.3846154,10.7594937 L56.5384615,10.7594937 C57.4358974,10.7594937 58.1650641,11.1237474 58.7259615,11.8522547 C59.286859,12.5807621 59.4270833,13.3653085 59.1466346,14.205894 L53.3413462,33.4553006 C55.1362179,34.4079641 56.5665064,35.7248813 57.6322115,37.4060522 C58.6979167,39.0872231 59.2307692,40.9645306 59.2307692,43.0379747 Z M26.9230769,64.556962 L70,64.556962 L70,80.6962025 C70,86.6363397 67.8966346,91.7078718 63.6899038,95.9107991 C59.4831731,100.113726 54.4070513,102.21519 48.4615385,102.21519 C42.5160256,102.21519 37.4399038,100.113726 33.2331731,95.9107991 C29.0264423,91.7078718 26.9230769,86.6363397 26.9230769,80.6962025 L26.9230769,64.556962 Z M96.9230769,56.4873418 L96.9230769,8.06962025 C96.9230769,5.82805907 96.1378205,3.92273207 94.5673077,2.35363924 C92.9967949,0.784546414 91.0897436,0 88.8461538,0 L8.07692308,0 C5.83333333,0 3.92628205,0.784546414 2.35576923,2.35363924 C0.78525641,3.92273207 0,5.82805907 0,8.06962025 L0,56.4873418 C0,58.728903 0.78525641,60.63423 2.35576923,62.2033228 C3.92628205,63.7724156 5.83333333,64.556962 8.07692308,64.556962 L10.7692308,64.556962 L10.7692308,80.6962025 C10.7692308,91.007384 14.4711538,99.8615506 21.875,107.258703 C29.2788462,114.655854 38.1410256,118.35443 48.4615385,118.35443 C58.7820513,118.35443 67.6442308,114.655854 75.0480769,107.258703 C82.4519231,99.8615506 86.1538462,91.007384 86.1538462,80.6962025 L86.1538462,64.556962 L88.8461538,64.556962 C91.0897436,64.556962 92.9967949,63.7724156 94.5673077,62.2033228 C96.1378205,60.63423 96.9230769,58.728903 96.9230769,56.4873418 Z" id="path2993"></path>
                </g>
            </g>
            <g id="Assets" transform="translate(13.000000, 60.000000)" fill="#FFFFFF" opacity="0.451264881">
                <path d="M20.3333333,10.3333333 C20.3333333,15.8541667 15.8541667,20.3333333 10.3333333,20.3333333 C4.8125,20.3333333 0.3333333,15.8541667 0.3333333,10.3333333 C0.3333333,4.8125 4.8125,0.3333333 10.3333333,0.3333333 C15.8541667,0.3333333 20.3333333,4.8125 20.3333333,10.3333333 Z M52,8.6666667 L73.6666667,30.3333333 L73.6666667,53.6666667 L0.3333333,53.6666667 L0.3333333,43.6666667 L17,27 L25.3333333,35.3333333 L28.6213333,32.0443333 L24.7764423,44.794106 C24.5175666,45.570031 24.6171342,46.2982068 25.0751451,46.9786334 L25.1971154,47.1477453 C25.7580128,47.8762526 26.4871795,48.2405063 27.3846154,48.2405063 L27.3846154,48.2405063 L43.5384615,48.2405063 C44.4358974,48.2405063 45.1650641,47.8762526 45.7259615,47.1477453 C46.286859,46.4192379 46.4270833,45.6346915 46.1466346,44.794106 L46.1466346,44.794106 L40.3413462,25.5446994 C42.1362179,24.5920359 43.5665064,23.2751187 44.6322115,21.5939478 C45.6979167,19.9127769 46.2307692,18.0354694 46.2307692,15.9620253 C46.2307692,15.4702944 46.2019417,14.9904681 46.1442868,14.5225464 L52,8.6666667 Z" id="ozsydjmkxc-Shape"></path>
            </g>
        </g>
    </g>
</svg>